<?xml version="1.0" standalone="no"?>
<!DOCTYPE svg PUBLIC "-//W3C//DTD SVG 20010904//EN"
 "http://www.w3.org/TR/2001/REC-SVG-20010904/DTD/svg10.dtd">
<svg version="1.0" xmlns="http://www.w3.org/2000/svg"
 width="700.000000pt" height="700.000000pt" viewBox="0 0 700.000000 700.000000"
 preserveAspectRatio="xMidYMid meet">
<metadata>
Created by potrace 1.11, written by Peter Selinger 2001-2013
</metadata>
<g transform="translate(0.000000,700.000000) scale(0.100000,-0.100000)"
fill="#000000" stroke="none">
<path d="M0 6990 c0 -13 20 -13 40 0 12 8 9 10 -12 10 -16 0 -28 -4 -28 -10z"/>
<path d="M73 6983 c-66 -33 -37 -36 157 -18 20 2 51 10 70 18 34 15 31 15 -80
16 -86 0 -123 -4 -147 -16z"/>
<path d="M365 6979 c-43 -20 -45 -18 30 -24 19 -1 95 31 95 40 0 13 -89 1
-125 -16z"/>
<path d="M513 6979 c-18 -12 -33 -22 -33 -24 0 -9 41 10 56 26 22 24 17 24
-23 -2z"/>
<path d="M573 6988 c-27 -35 -27 -41 2 -34 16 4 40 16 53 27 l25 19 -35 0
c-20 0 -40 -6 -45 -12z"/>
<path d="M664 6978 l-19 -23 25 20 c14 11 27 21 29 22 2 2 0 3 -6 3 -5 0 -18
-10 -29 -22z"/>
<path d="M710 6980 c-11 -20 -8 -20 135 -20 134 0 146 1 143 18 -3 15 -19 17
-135 20 -124 2 -133 1 -143 -18z"/>
<path d="M1017 6980 c3 -11 9 -20 13 -20 5 0 6 9 3 20 -3 11 -9 20 -13 20 -5
0 -6 -9 -3 -20z"/>
<path d="M1060 6981 c11 -22 30 -37 30 -24 -1 11 -26 43 -34 43 -4 0 -2 -9 4
-19z"/>
<path d="M1110 6980 c13 -24 35 -27 26 -4 -3 9 -6 18 -6 20 0 2 -7 4 -15 4
-13 0 -14 -4 -5 -20z"/>
<path d="M1163 6980 c14 -11 30 -20 36 -20 6 0 11 9 11 20 0 16 -7 20 -36 20
l-37 0 26 -20z"/>
<path d="M1237 6980 c3 -11 9 -20 14 -20 5 0 9 9 9 20 0 11 -6 20 -14 20 -9 0
-12 -7 -9 -20z"/>
<path d="M1302 6983 c2 -10 14 -19 26 -21 19 -3 23 1 20 15 -2 10 -14 19 -26
21 -19 3 -23 -1 -20 -15z"/>
<path d="M1400 6996 c0 -2 7 -6 15 -10 8 -3 15 -1 15 4 0 6 -7 10 -15 10 -8 0
-15 -2 -15 -4z"/>
<path d="M1460 6992 c0 -17 25 -32 52 -32 21 0 28 5 28 20 0 17 -7 20 -40 20
-22 0 -40 -4 -40 -8z"/>
<path d="M1564 6984 c3 -9 6 -18 6 -20 0 -2 7 -4 15 -4 10 0 12 6 8 17 -7 17
-6 17 20 0 22 -14 51 -17 193 -17 l167 0 -26 20 c-23 18 -40 20 -207 20 -162
0 -181 -2 -176 -16z"/>
<path d="M1995 6980 c46 -30 85 -24 53 8 -7 7 -28 12 -47 12 l-36 0 30 -20z"/>
<path d="M2105 6990 c-11 -18 5 -30 39 -30 30 0 56 15 56 32 0 12 -88 10 -95
-2z"/>
<path d="M2265 6980 c16 -17 29 -20 79 -18 49 2 61 7 64 21 3 15 -6 17 -79 17
-82 0 -82 0 -64 -20z"/>
<path d="M2457 6980 c-5 -18 0 -20 55 -20 51 0 59 2 54 16 -3 9 -6 18 -6 20 0
2 -22 4 -49 4 -40 0 -50 -3 -54 -20z"/>
<path d="M2600 6980 c8 -16 20 -19 65 -19 50 1 53 2 42 20 -9 15 -24 19 -65
19 -49 0 -52 -1 -42 -20z"/>
<path d="M2975 6991 c-14 -6 -3 -10 40 -15 123 -16 147 -16 141 0 -3 9 -6 18
-6 20 0 7 -154 3 -175 -5z"/>
<path d="M3187 6978 c17 -17 25 -19 36 -10 9 8 30 9 68 3 130 -20 229 -12 229
20 0 5 -80 9 -177 9 l-177 0 21 -22z"/>
<path d="M3550 6985 c-14 -16 -14 -16 47 -20 31 -2 43 1 48 13 6 16 7 16 19 0
11 -15 15 -15 52 2 l39 18 -96 1 c-74 1 -99 -2 -109 -14z"/>
<path d="M3767 6993 c-16 -15 -5 -23 32 -23 22 0 44 6 51 15 11 13 6 15 -32
15 -25 0 -48 -3 -51 -7z"/>
<path d="M3890 6984 c-12 -13 -7 -15 45 -12 36 2 60 8 63 16 6 19 -92 16 -108
-4z"/>
<path d="M4037 6993 c-17 -17 -2 -23 56 -23 40 0 70 5 83 15 17 13 12 14 -57
15 -42 0 -79 -3 -82 -7z"/>
<path d="M4227 6993 c-12 -11 -8 -23 7 -23 8 0 16 7 20 15 5 15 -14 21 -27 8z"/>
<path d="M4276 6986 c4 -11 19 -16 46 -16 54 0 45 24 -10 28 -34 3 -41 0 -36
-12z"/>
<path d="M4380 6986 c0 -13 12 -16 56 -16 73 0 70 24 -4 28 -42 2 -52 0 -52
-12z"/>
<path d="M4509 6986 c17 -21 243 -22 261 -1 11 13 -3 15 -130 15 -119 0 -141
-2 -131 -14z"/>
<path d="M4854 6985 c11 -8 36 -15 55 -15 34 1 35 2 17 15 -11 8 -36 15 -55
15 -34 -1 -35 -2 -17 -15z"/>
<path d="M5000 6990 c20 -13 90 -13 90 0 0 6 -24 10 -52 10 -38 0 -49 -3 -38
-10z"/>
<path d="M5110 6990 c0 -5 7 -10 16 -10 8 0 12 5 9 10 -3 6 -10 10 -16 10 -5
0 -9 -4 -9 -10z"/>
<path d="M5190 6985 c8 -9 30 -15 56 -15 32 0 44 4 44 15 0 12 -13 15 -56 15
-49 0 -55 -2 -44 -15z"/>
<path d="M5312 6988 c8 -22 108 -20 108 2 0 6 -25 10 -56 10 -40 0 -55 -3 -52
-12z"/>
<path d="M5450 6990 c0 -6 30 -10 71 -10 44 0 68 4 64 10 -3 6 -35 10 -71 10
-36 0 -64 -4 -64 -10z"/>
<path d="M5615 6990 c3 -5 10 -10 16 -10 5 0 9 5 9 10 0 6 -7 10 -16 10 -8 0
-12 -4 -9 -10z"/>
<path d="M5790 6990 c36 -12 60 -12 60 0 0 6 -19 10 -42 9 -37 -1 -39 -2 -18
-9z"/>
<path d="M5930 6990 c0 -5 9 -10 21 -10 11 0 17 5 14 10 -3 6 -13 10 -21 10
-8 0 -14 -4 -14 -10z"/>
<path d="M6043 6988 c21 -7 32 -7 40 1 8 8 0 11 -28 10 -40 -1 -40 -1 -12 -11z"/>
<path d="M6115 6990 c-3 -5 3 -10 15 -10 12 0 18 5 15 10 -3 6 -10 10 -15 10
-5 0 -12 -4 -15 -10z"/>
<path d="M6195 6990 c3 -5 38 -10 76 -10 44 0 68 4 64 10 -3 6 -38 10 -76 10
-44 0 -68 -4 -64 -10z"/>
<path d="M6375 6990 c3 -5 10 -10 16 -10 5 0 9 5 9 10 0 6 -7 10 -16 10 -8 0
-12 -4 -9 -10z"/>
<path d="M6450 6990 c0 -6 98 -10 275 -10 177 0 275 4 275 10 0 6 -98 10 -275
10 -177 0 -275 -4 -275 -10z"/>
<path d="M2756 6981 c13 -13 104 -24 104 -13 0 10 -47 22 -88 22 -16 0 -22 -4
-16 -9z"/>
<path d="M5678 6983 c7 -3 16 -2 19 1 4 3 -2 6 -13 5 -11 0 -14 -3 -6 -6z"/>
<path d="M0 6625 c0 -177 4 -275 10 -275 6 0 10 11 10 25 0 15 7 39 15 56 9
16 13 34 10 39 -8 13 13 22 36 15 15 -5 19 -13 15 -27 -3 -12 6 -42 20 -70 22
-43 29 -49 52 -46 20 2 29 11 36 36 9 32 23 38 78 34 9 -1 20 8 23 19 10 29
39 20 43 -14 2 -16 -1 -34 -7 -41 -8 -9 -8 -22 0 -45 9 -25 9 -39 0 -59 -11
-22 -10 -28 5 -39 10 -7 26 -13 36 -13 10 0 18 -4 18 -9 0 -5 9 -11 20 -14 11
-3 24 -16 29 -29 10 -23 10 -23 10 4 1 23 7 29 43 39 31 8 43 8 46 0 6 -17 42
-13 42 4 0 21 14 19 35 -5 11 -12 28 -20 39 -18 32 5 34 74 3 112 -20 24 -26
27 -44 18 -17 -9 -24 -8 -38 8 -12 14 -25 17 -50 13 l-33 -5 -7 76 c-8 81 -24
104 -64 91 -10 -3 -30 -1 -45 5 -24 9 -26 13 -20 49 8 48 -12 62 -74 54 -38
-5 -42 -3 -47 20 -4 14 -2 34 4 45 15 28 14 29 -10 35 -12 3 -19 11 -17 18 5
14 94 14 113 0 6 -4 29 -4 53 1 41 9 42 10 42 49 0 45 21 93 47 108 13 7 -60
10 -229 10 l-248 1 0 -275z"/>
<path d="M622 6887 c-19 -6 -41 -22 -50 -36 -9 -14 -22 -32 -29 -39 -13 -14
-17 -69 -7 -95 3 -9 14 -12 28 -10 26 5 66 -12 66 -28 0 -10 -8 -14 -52 -23
l-27 -6 25 -27 c13 -14 24 -32 24 -39 0 -12 72 -29 95 -23 23 7 75 -12 85 -30
8 -16 6 -24 -11 -40 -29 -27 -20 -36 44 -39 54 -3 55 -2 106 47 32 32 59 51
74 51 23 0 104 48 126 74 8 10 7 22 -3 48 -8 19 -13 44 -10 55 7 27 -12 38
-32 19 -17 -18 -60 -21 -69 -6 -9 14 -25 2 -25 -18 0 -10 -15 -24 -37 -34 -33
-14 -40 -14 -54 -2 -8 8 -25 14 -37 14 -26 0 -33 12 -36 58 -2 44 -15 70 -25
53 -5 -7 -20 9 -40 39 -28 43 -37 50 -64 49 -18 -1 -47 -6 -65 -12z"/>
<path d="M882 6876 c-8 -18 -7 -28 4 -44 13 -19 17 -20 42 -6 36 18 49 18 61
-3 15 -26 14 2 -1 44 -11 30 -16 33 -53 33 -34 0 -44 -4 -53 -24z"/>
<path d="M1935 6889 c4 -6 10 -8 13 -5 3 3 13 -1 22 -9 15 -13 22 -14 44 -3
25 11 29 9 50 -17 21 -27 46 -28 46 -3 0 6 7 20 17 30 15 17 12 18 -91 18 -73
0 -105 -3 -101 -11z"/>
<path d="M5560 6878 c-5 -13 -19 -35 -31 -49 -19 -24 -20 -28 -6 -55 10 -20
28 -33 57 -42 52 -16 64 -9 45 28 -8 16 -16 54 -16 85 -1 47 -4 55 -21 55 -10
0 -23 -10 -28 -22z"/>
<path d="M5646 6878 c35 -43 44 -48 65 -35 10 6 19 22 19 34 0 21 -5 23 -52
23 l-51 0 19 -22z"/>
<path d="M6370 6885 c0 -8 20 -26 44 -40 55 -32 86 -23 86 25 l0 30 -65 0
c-50 0 -65 -3 -65 -15z"/>
<path d="M6600 6895 c0 -2 13 -18 30 -35 16 -17 37 -42 46 -55 21 -32 37 -32
62 0 11 14 27 25 36 25 16 0 65 47 66 63 0 4 -54 7 -120 7 -66 0 -120 -2 -120
-5z"/>
<path d="M1500 6795 c0 -20 5 -25 24 -25 24 0 41 23 30 41 -3 5 -16 9 -30 9
-19 0 -24 -5 -24 -25z"/>
<path d="M5786 6798 c-20 -28 -20 -67 -1 -74 8 -4 15 -12 15 -19 0 -22 37 -47
59 -40 33 10 28 68 -10 116 -36 45 -42 47 -63 17z"/>
<path d="M1080 6800 c0 -5 5 -10 10 -10 6 0 10 5 10 10 0 6 -4 10 -10 10 -5 0
-10 -4 -10 -10z"/>
<path d="M2375 6770 c-10 -11 -29 -20 -42 -20 -16 0 -23 -6 -23 -19 0 -11 -4
-23 -10 -26 -5 -3 -10 -11 -10 -17 0 -7 5 -6 15 2 10 8 32 10 69 6 l54 -7 7
30 c7 34 2 46 -24 61 -14 7 -23 5 -36 -10z"/>
<path d="M880 6764 c0 -8 5 -12 10 -9 6 3 10 10 10 16 0 5 -4 9 -10 9 -5 0
-10 -7 -10 -16z"/>
<path d="M6385 6760 c-4 -6 -24 -19 -46 -30 -45 -23 -48 -39 -16 -74 29 -31
66 -46 87 -35 8 4 27 10 42 13 47 10 45 41 -7 91 -50 49 -51 50 -60 35z"/>
<path d="M1912 6688 c-7 -7 -12 -8 -12 -2 0 11 -49 -67 -50 -79 0 -5 10 -7 23
-5 15 2 23 11 25 28 2 13 13 32 23 41 10 9 19 19 19 23 0 10 -15 7 -28 -6z"/>
<path d="M4690 6690 c0 -5 4 -10 9 -10 5 0 18 -3 28 -7 17 -6 17 -6 1 10 -18
19 -38 22 -38 7z"/>
<path d="M6952 6680 c0 -14 2 -19 5 -12 2 6 2 18 0 25 -3 6 -5 1 -5 -13z"/>
<path d="M6718 6678 c-17 -14 -31 -128 -16 -128 5 0 26 -11 48 -25 49 -31 80
-32 108 -2 44 47 15 120 -60 151 -45 19 -59 20 -80 4z"/>
<path d="M3831 6640 c-25 -31 -30 -45 -25 -67 8 -32 32 -63 48 -63 12 0 38 51
43 84 2 11 11 28 21 39 16 18 16 20 -3 33 -30 22 -50 17 -84 -26z"/>
<path d="M5138 6639 c-24 -14 -23 -39 2 -39 15 0 20 7 20 25 0 28 1 28 -22 14z"/>
<path d="M4280 6616 c0 -28 24 -51 45 -42 15 5 14 9 -2 36 -21 36 -43 39 -43
6z"/>
<path d="M1616 6600 c-67 -9 -64 -56 9 -122 35 -32 65 -29 108 10 27 26 37 62
16 62 -6 0 -18 8 -27 18 -25 27 -62 38 -106 32z"/>
<path d="M4366 6562 c-8 -13 22 -72 37 -72 24 0 26 11 10 46 -16 32 -36 44
-47 26z"/>
<path d="M2903 6534 c-6 -15 27 -54 46 -54 21 0 61 24 61 36 0 32 -95 48 -107
18z"/>
<path d="M6929 6519 c-9 -18 -7 -27 10 -50 12 -15 21 -36 21 -45 0 -8 9 -27
20 -41 l20 -26 0 81 c0 70 -3 83 -19 92 -29 15 -39 13 -52 -11z"/>
<path d="M4025 6500 c-23 -25 -12 -39 37 -46 32 -6 36 -4 42 20 4 15 4 31 1
36 -11 17 -61 11 -80 -10z"/>
<path d="M6151 6476 c-16 -19 -3 -45 26 -52 33 -9 36 -3 17 34 -17 35 -26 39
-43 18z"/>
<path d="M6423 6443 c-18 -7 -16 -32 2 -39 23 -9 48 15 34 32 -12 15 -16 16
-36 7z"/>
<path d="M4665 6307 c-3 -6 -6 -23 -7 -37 -2 -19 2 -25 17 -25 26 0 35 59 10
69 -9 3 -18 0 -20 -7z"/>
<path d="M2 6290 c0 -14 2 -19 5 -12 2 6 2 18 0 25 -3 6 -5 1 -5 -13z"/>
<path d="M6786 6290 c-44 -20 -58 -37 -50 -62 3 -10 0 -33 -7 -52 -11 -29 -10
-38 5 -60 14 -22 20 -25 37 -15 35 18 36 -1 2 -30 -18 -15 -33 -32 -33 -37 0
-17 85 -54 125 -54 30 0 36 3 27 12 -32 32 -1 89 38 68 11 -6 25 -8 31 -4 24
14 39 76 38 156 0 59 -3 77 -9 61 -5 -12 -26 -29 -47 -38 -48 -20 -78 -8 -86
33 -8 38 -23 43 -71 22z"/>
<path d="M6410 6280 c0 -13 7 -20 20 -20 13 0 20 7 20 20 0 13 -7 20 -20 20
-13 0 -20 -7 -20 -20z"/>
<path d="M0 6070 c0 -166 1 -176 21 -188 23 -15 54 -8 62 12 8 20 86 -20 97
-50 7 -17 20 -24 55 -30 59 -8 75 5 51 41 -12 19 -14 30 -7 39 10 12 7 101 -5
144 -4 12 -2 22 4 22 20 0 37 -34 42 -83 4 -45 9 -53 39 -69 25 -14 44 -18 68
-13 33 6 34 8 27 38 -4 18 -6 46 -5 64 1 17 -5 38 -14 46 -8 9 -15 27 -15 40
0 35 -10 57 -25 57 -23 0 -27 -18 -14 -60 15 -49 3 -68 -30 -50 -12 6 -19 15
-16 21 4 5 11 7 16 4 5 -4 9 5 9 19 0 18 -4 24 -14 20 -8 -3 -23 4 -33 15 -11
12 -33 24 -50 27 -26 5 -34 2 -48 -20 -10 -14 -22 -26 -27 -26 -6 0 -23 -11
-40 -25 -16 -14 -34 -25 -39 -25 -23 0 -58 53 -64 99 -3 26 -15 61 -26 77
l-19 29 0 -175z m215 -129 c-9 -16 -25 -3 -18 15 4 10 9 12 15 6 6 -6 7 -15 3
-21z m-65 -11 c0 -5 -5 -10 -11 -10 -5 0 -7 5 -4 10 3 6 8 10 11 10 2 0 4 -4
4 -10z"/>
<path d="M6086 6218 c-10 -39 -7 -75 9 -88 8 -7 15 -22 15 -34 0 -12 10 -34
21 -48 18 -22 26 -25 40 -17 23 12 26 31 4 23 -19 -8 -19 -5 1 52 9 26 14 59
11 73 -3 14 -2 33 3 41 6 12 -1 15 -45 18 -47 2 -53 0 -59 -20z"/>
<path d="M874 6204 c-13 -18 -13 -26 -2 -43 14 -23 57 -41 98 -41 15 0 33 -7
40 -15 8 -9 22 -12 43 -8 42 8 42 8 23 38 -32 49 -55 65 -91 65 -19 0 -35 4
-35 9 0 5 -14 11 -31 13 -24 4 -34 0 -45 -18z"/>
<path d="M3582 6099 c-13 -5 -26 -18 -29 -29 -3 -11 -9 -20 -14 -20 -5 0 -8
-6 -6 -12 1 -10 -16 -12 -70 -10 -80 4 -163 -23 -163 -52 0 -9 5 -16 10 -16
26 0 5 -29 -36 -49 -25 -13 -60 -36 -78 -51 -44 -39 -106 -76 -141 -84 -16 -4
-46 -22 -66 -39 -20 -18 -46 -40 -57 -49 -12 -10 -22 -25 -22 -33 0 -9 -4 -14
-8 -11 -5 3 -18 -5 -30 -17 -50 -52 -142 -175 -142 -191 0 -6 -21 -30 -46 -53
-25 -24 -43 -47 -40 -52 6 -9 -31 -59 -82 -110 -21 -21 -32 -42 -32 -61 0 -26
-12 -62 -45 -135 -7 -16 -20 -53 -28 -82 -9 -28 -20 -60 -25 -70 -6 -10 -15
-63 -22 -118 -6 -55 -15 -113 -20 -130 -12 -41 -19 -386 -8 -407 5 -11 5 -18
-1 -18 -5 0 -11 5 -13 12 -10 28 -27 -6 -24 -45 2 -23 4 -59 5 -79 1 -35 21
-57 21 -23 0 8 4 15 9 15 12 0 20 -66 19 -147 -1 -48 3 -68 17 -83 10 -11 19
-35 21 -55 4 -57 15 -99 34 -125 21 -30 28 -51 35 -107 2 -23 16 -83 29 -134
14 -50 22 -97 20 -104 -7 -18 22 -128 57 -212 20 -50 29 -88 28 -125 l0 -53
-39 80 c-22 44 -40 86 -40 93 0 7 -9 30 -20 52 -11 21 -27 61 -36 87 -18 54
-50 103 -66 103 -6 0 -17 8 -24 18 -12 16 -13 15 -14 -6 0 -12 5 -31 12 -41 6
-10 8 -26 4 -37 -8 -18 -8 -18 -15 0 -4 11 -8 -23 -9 -76 -2 -89 0 -97 23
-122 14 -15 29 -25 34 -22 4 3 8 -18 8 -47 1 -94 3 -106 13 -112 5 -3 10 -17
10 -31 0 -13 4 -32 9 -42 23 -46 43 -134 38 -166 -3 -20 -2 -36 4 -36 5 0 9
-6 9 -14 0 -8 5 -16 11 -18 6 -2 28 -57 50 -123 30 -93 39 -133 38 -184 -1
-39 -4 -58 -8 -46 -8 24 -34 83 -63 143 -11 23 -22 61 -25 85 -3 23 -9 49 -14
58 -5 9 -18 59 -29 110 -12 52 -27 100 -34 109 -7 8 -17 29 -20 45 -4 17 -13
37 -21 45 -7 8 -16 37 -20 64 -4 32 -10 45 -15 36 -7 -11 -12 -10 -26 4 -14
15 -15 22 -6 37 20 31 15 49 -13 49 -26 0 -26 0 -19 61 5 46 4 60 -5 55 -6 -4
-11 -16 -11 -26 0 -10 -5 -20 -11 -22 -11 -4 -39 -135 -33 -153 2 -5 8 -41 14
-80 6 -38 15 -99 20 -135 6 -36 19 -87 29 -115 19 -51 39 -116 65 -215 8 -30
24 -80 35 -110 12 -30 21 -66 21 -80 0 -14 7 -38 15 -54 21 -39 19 -40 -16
-16 -16 12 -32 20 -35 18 -2 -3 7 -38 22 -79 50 -143 49 -138 33 -154 -8 -8
-43 -19 -78 -24 -76 -12 -171 -55 -228 -103 -31 -26 -73 -45 -160 -73 -65 -20
-128 -41 -141 -46 -13 -5 -30 -9 -38 -9 -23 0 -84 -31 -84 -42 0 -5 9 -7 19
-3 13 4 23 0 30 -12 6 -10 11 -12 11 -5 0 6 7 12 16 12 13 0 14 -9 9 -54 -5
-35 -3 -56 4 -60 7 -5 11 11 12 51 0 63 16 120 19 73 2 -14 1 -29 0 -35 -2 -5
-2 -33 -1 -61 1 -50 1 -51 -29 -51 -28 0 -30 3 -30 39 0 26 -4 37 -11 33 -9
-6 -9 -28 0 -94 1 -2 8 -1 15 2 9 4 17 -2 21 -14 8 -24 -3 -39 -14 -20 -7 11
-9 11 -13 0 -9 -27 -48 69 -48 118 0 31 -3 43 -9 34 -7 -11 -11 -9 -21 9 -19
36 -23 15 -5 -35 8 -26 14 -49 13 -50 -2 -2 -17 -11 -35 -22 -29 -17 -110 -88
-267 -235 -133 -123 -160 -147 -165 -142 -6 6 87 97 219 214 136 120 136 120
124 120 -21 0 -177 -135 -351 -304 -51 -49 -93 -86 -93 -82 0 4 51 59 114 122
62 62 111 116 108 119 -3 3 -18 -7 -32 -22 -25 -26 -86 -83 -174 -163 -81 -73
-10 12 92 110 56 54 102 102 102 105 0 6 -37 -27 -157 -140 -46 -44 -92 -84
-101 -89 -17 -8 39 54 107 121 51 50 22 40 -32 -12 -49 -46 -86 -63 -51 -24
14 16 16 23 6 26 -10 4 -10 8 0 21 11 13 10 15 -5 9 -9 -3 -17 -2 -17 3 0 6
-15 10 -32 9 l-33 -1 31 -9 c39 -11 50 -36 28 -61 -20 -21 -33 -16 -14 7 10
12 10 15 -1 18 -8 2 -30 9 -49 16 -31 10 -36 9 -49 -9 -7 -11 -20 -20 -28 -20
-7 0 -16 -6 -19 -14 -3 -8 -17 -17 -30 -20 -14 -4 -23 -10 -20 -14 3 -5 -10
-14 -29 -21 -22 -8 -35 -19 -37 -34 -2 -12 -12 -24 -24 -27 -12 -3 -61 -41
-109 -85 -48 -44 -93 -82 -99 -84 -6 -2 -23 -17 -39 -35 -26 -30 -27 -30 -22
-6 6 24 4 25 -44 25 -38 0 -55 5 -70 22 -11 12 -29 24 -40 28 -10 3 -22 12
-25 20 -3 8 -12 15 -21 15 -10 0 -15 7 -13 18 2 10 -2 16 -10 14 -8 -1 -3 14
12 41 15 24 26 53 26 65 0 12 13 31 30 44 17 12 30 29 30 38 0 23 -67 90 -90
90 -6 0 -8 10 -4 25 8 31 -8 51 -54 71 -31 13 -37 13 -52 -1 -9 -8 -33 -15
-53 -15 -31 0 -37 -3 -37 -21 0 -12 8 -23 20 -26 11 -3 20 -11 20 -18 0 -8 2
-20 5 -27 6 -16 -44 -43 -98 -53 -48 -9 -69 -55 -75 -168 -4 -82 -3 -89 19
-111 13 -13 38 -26 54 -27 29 -4 30 -3 33 46 2 27 10 58 19 67 29 33 104 19
165 -31 13 -10 15 -18 8 -32 -17 -30 -11 -61 16 -84 22 -19 23 -23 10 -34 -9
-7 -42 -15 -73 -18 -70 -6 -93 -17 -93 -43 0 -11 -9 -29 -21 -41 -27 -27 -72
-20 -111 18 l-27 26 0 -267 -1 -266 1836 0 c1743 0 1835 1 1830 18 -3 9 -10
37 -16 62 -6 25 -24 86 -40 135 -15 50 -42 142 -59 206 -16 64 -54 185 -84
270 -85 239 -89 257 -56 244 25 -9 116 -242 144 -369 15 -66 31 -131 37 -145
8 -23 74 -267 101 -378 l10 -43 614 0 613 0 0 28 c0 66 22 589 26 610 4 20 7
22 19 12 12 -10 15 -10 16 1 0 8 4 5 9 -6 8 -20 6 -281 -6 -517 l-6 -128 1006
0 1006 0 0 351 0 351 -25 -16 c-14 -9 -25 -12 -25 -6 0 6 -15 17 -33 25 -18 7
-41 22 -50 33 -10 11 -44 30 -75 42 -31 12 -79 33 -107 45 -27 13 -62 27 -76
30 -14 4 -43 26 -63 51 -50 59 -66 58 -66 -5 0 -41 -4 -51 -24 -65 -14 -9 -27
-12 -30 -7 -3 5 -24 5 -46 1 -22 -4 -62 -3 -88 2 -74 14 -191 18 -197 8 -4 -6
-17 -10 -31 -10 -20 0 -24 -5 -24 -32 -1 -29 -2 -31 -13 -16 -12 15 -14 15
-24 0 -10 -15 -12 -14 -22 11 -6 15 -15 27 -21 27 -16 0 -12 37 5 44 31 11 16
41 -27 54 -51 16 -138 -1 -138 -28 0 -23 -52 -50 -97 -50 -21 0 -54 -8 -74
-18 -27 -14 -57 -17 -133 -16 -96 1 -126 -8 -126 -37 0 -12 -87 -12 -94 0 -3
5 -6 73 -7 153 -1 149 -6 173 -36 173 -14 0 -20 13 -28 60 -8 46 -58 173 -82
204 -2 3 -16 -10 -31 -27 -16 -18 -32 -32 -37 -32 -13 0 6 112 23 139 11 16
17 50 19 95 1 39 7 94 12 121 5 28 10 76 10 108 1 31 8 84 17 116 20 72 13
131 -16 131 -10 0 -22 -4 -25 -10 -3 -5 -10 -10 -16 -10 -5 0 -9 5 -9 10 0 6
7 10 15 10 8 0 12 6 10 13 -10 24 89 151 152 196 28 20 56 50 67 73 10 22 54
76 98 121 44 45 86 96 95 112 9 17 28 46 43 65 76 98 114 227 140 480 12 113
11 168 -9 360 -16 155 -50 308 -86 377 -13 26 -20 50 -14 51 15 6 10 60 -10
110 -11 26 -29 80 -41 119 -12 40 -25 75 -30 78 -4 3 -14 29 -20 57 -7 29 -16
58 -19 63 -15 21 -60 152 -66 190 -4 22 -14 61 -22 86 -12 36 -14 53 -5 77 10
29 9 30 -24 36 -30 6 -37 14 -74 92 -22 46 -40 88 -40 92 0 4 -20 32 -46 62
-25 30 -75 99 -111 153 -36 54 -79 107 -94 118 -15 11 -35 37 -44 57 -16 36
-58 66 -117 86 -10 3 -18 15 -18 28 0 13 -9 34 -19 47 -17 22 -23 24 -72 18
l-54 -6 28 17 c15 9 27 19 27 22 0 17 -234 159 -262 160 -16 0 -83 30 -153 68
-16 9 -48 17 -69 19 -23 2 -49 12 -62 24 -23 21 -25 21 -106 -3 -46 -13 -83
-4 -110 27 -25 29 -35 31 -59 9 -10 -9 -29 -17 -41 -18 -15 -1 -23 -7 -22 -19
2 -26 -9 -21 -40 18 -24 30 -34 35 -70 35 -50 0 -77 14 -49 25 16 6 16 8 -6
16 -13 5 -32 7 -42 4 -20 -7 -26 9 -9 20 12 7 14 25 3 24 -5 0 -19 -4 -31 -10z
m-122 -434 c0 -3 -16 -22 -35 -41 -20 -19 -48 -54 -62 -77 -15 -23 -40 -59
-56 -80 -16 -21 -46 -70 -67 -110 -83 -159 -104 -197 -112 -197 -4 0 3 19 16
43 13 23 47 94 77 157 29 63 68 137 87 164 19 27 35 55 36 63 1 7 8 19 16 26
10 9 11 9 6 0 -12 -22 1 -14 41 22 35 33 53 42 53 30z m275 -8 c-11 -8 -45
-28 -75 -45 -58 -32 -118 -87 -107 -98 3 -3 23 8 44 25 40 33 58 40 50 18 -4
-10 2 -13 19 -9 16 3 24 11 24 24 0 12 -4 17 -12 12 -7 -5 -8 -3 -3 6 5 8 20
10 41 7 19 -3 36 -1 39 4 4 5 10 9 16 9 5 0 4 -9 -3 -19 -7 -11 -16 -17 -22
-14 -5 4 -7 -1 -3 -10 3 -9 1 -19 -5 -23 -7 -4 -8 -3 -4 4 9 16 -7 15 -22 0
-15 -15 -16 -31 0 -22 6 4 -1 -9 -17 -30 -21 -27 -30 -34 -36 -24 -6 9 -9 5
-9 -12 0 -15 -18 -44 -44 -73 -27 -29 -47 -63 -51 -84 -3 -19 -8 -33 -11 -30
-6 6 14 96 27 120 19 34 1 29 -33 -9 -84 -94 -118 -128 -118 -121 0 5 20 33
45 64 47 57 54 84 12 45 -13 -12 -27 -22 -32 -22 -5 0 -20 -10 -34 -22 l-25
-23 19 30 c10 17 24 39 32 50 7 11 13 29 13 41 0 11 9 29 20 39 11 10 20 23
20 29 0 5 -15 -4 -33 -22 -38 -36 -47 -39 -47 -14 0 9 -13 -4 -28 -30 -28 -50
-48 -65 -33 -24 12 30 81 139 95 148 5 4 14 4 18 2 4 -3 8 4 8 15 0 14 6 21
18 21 10 0 27 6 37 14 18 13 17 14 -9 14 -22 0 -45 -18 -104 -77 -41 -42 -69
-65 -62 -51 20 38 150 165 158 154 4 -5 20 -10 35 -11 38 -1 43 -9 20 -30 -10
-10 -14 -15 -8 -12 5 3 42 18 80 33 39 14 77 31 85 36 23 15 37 12 15 -3z
m-70 -7 c-3 -5 -12 -7 -20 -3 -21 7 -19 13 6 13 11 0 18 -4 14 -10z m268 -70
c-3 -11 -9 -20 -14 -20 -5 0 -6 -6 -3 -14 3 -9 -5 -21 -20 -31 -23 -16 -85
-90 -119 -145 -12 -20 -13 -27 -3 -36 10 -9 16 -7 25 8 7 12 8 17 2 13 -24
-14 -9 23 19 50 17 16 30 34 30 41 0 14 28 39 36 31 3 -3 -10 -39 -30 -81 -20
-41 -36 -80 -36 -88 0 -7 -9 -28 -21 -47 -11 -18 -18 -35 -16 -37 7 -8 57 75
57 95 0 11 4 22 10 26 5 3 21 28 36 55 15 28 31 50 35 50 10 0 2 -24 -44 -119
-19 -40 -33 -80 -30 -88 3 -8 2 -18 -3 -22 -5 -3 -18 -32 -27 -63 -17 -54 -20
-58 -49 -58 -26 0 -29 3 -24 20 3 11 9 30 13 42 4 15 3 19 -6 13 -10 -6 -11
-2 -6 16 l7 24 -28 -25 c-16 -13 -46 -40 -68 -60 -29 -27 -36 -30 -27 -12 6
12 8 22 4 22 -3 0 -18 -10 -32 -22 -19 -18 -15 -5 24 67 27 50 56 104 64 120
8 17 24 39 35 50 23 22 68 81 80 105 4 8 -6 -1 -23 -20 -17 -19 -31 -32 -31
-29 -1 20 33 79 61 107 29 29 34 32 39 16 6 -15 8 -15 15 -3 5 8 10 20 11 27
4 21 25 42 44 42 13 0 17 -6 13 -20z m-140 -21 c-10 -17 -42 -60 -71 -96 -30
-36 -58 -78 -63 -95 l-8 -30 22 18 c12 11 26 24 30 29 14 17 4 -8 -31 -76 -19
-35 -46 -78 -60 -95 -15 -16 -24 -25 -20 -19 4 6 6 24 6 41 -1 16 4 40 11 52
10 18 9 22 -4 22 -21 0 -19 15 9 46 46 51 54 62 50 67 -3 2 8 18 23 34 15 16
48 52 72 81 25 29 46 52 48 52 2 0 -4 -14 -14 -31z m227 7 c0 -2 -8 -10 -17
-17 -16 -13 -17 -12 -4 4 13 16 21 21 21 13z m-40 -61 c0 -1 -6 -8 -14 -15
-12 -9 -15 -8 -13 8 0 12 6 18 14 15 7 -3 13 -6 13 -8z m527 -47 c-3 -8 -6 -5
-6 6 -1 11 2 17 5 13 3 -3 4 -12 1 -19z m-109 -33 c-3 -3 -9 2 -12 12 -6 14
-5 15 5 6 7 -7 10 -15 7 -18z m-18 -58 c37 -68 80 -186 86 -237 3 -26 2 -30
-5 -15 -4 11 -6 25 -4 31 2 6 -3 17 -12 24 -8 7 -15 18 -15 24 0 7 -13 33 -30
59 -16 26 -33 59 -36 75 -4 15 -9 32 -13 37 -6 10 -11 69 -6 63 2 -2 17 -29
35 -61z m-410 48 c0 -2 -11 -20 -24 -40 -14 -20 -32 -62 -41 -93 -18 -66 -27
-84 -43 -90 -9 -3 -10 3 -2 23 13 33 13 48 0 40 -11 -7 -2 23 13 43 8 11 12
11 20 0 6 -9 7 -8 3 5 -4 12 4 32 24 57 16 21 30 43 30 49 0 6 5 11 10 11 6 0
10 -2 10 -5z m530 -60 c5 3 12 -11 15 -32 4 -21 14 -60 22 -88 25 -80 25 -82
3 -40 -26 48 -51 125 -44 136 2 4 0 10 -6 14 -5 3 -10 12 -9 18 0 9 2 8 6 -1
2 -6 9 -10 13 -7z m-320 -82 c0 -7 3 -13 8 -13 4 0 16 -15 26 -34 25 -48 85
-106 108 -106 10 0 16 -4 13 -10 -8 -14 -72 -13 -81 1 -4 8 -8 8 -13 0 -4 -6
-12 -2 -20 11 -12 19 -11 20 6 14 13 -4 12 0 -7 17 -28 25 -80 117 -80 141 0
9 -4 16 -9 16 -5 0 -11 10 -14 21 -5 18 0 16 29 -12 19 -18 34 -39 34 -46z
m-164 -18 c1 -38 6 -71 12 -73 11 -3 21 29 23 73 0 25 2 27 8 10 5 -11 5 -29
1 -41 -5 -11 -4 -27 0 -34 5 -8 5 -19 0 -25 -4 -5 -10 -21 -12 -35 -2 -21 -9
-25 -42 -28 -29 -3 -37 0 -34 10 24 63 20 78 -6 23 -16 -33 -36 -47 -36 -25 0
6 -8 10 -17 8 -14 -2 -17 3 -15 21 5 36 43 102 54 95 6 -4 8 2 3 15 -5 15 -2
21 9 21 10 0 16 9 16 23 0 27 9 39 24 34 6 -2 12 -34 12 -72z m104 3 c0 -4 14
-30 32 -57 17 -28 29 -54 26 -57 -8 -8 -88 128 -88 150 0 11 29 -25 30 -36z
m239 -65 c1 -13 16 -29 55 -57 26 -19 34 -36 17 -36 -5 0 -16 6 -23 14 -8 7
-25 19 -40 27 -21 11 -98 109 -98 125 0 10 89 -62 89 -73z m-1111 -18 c-6 -14
-13 -23 -15 -21 -5 5 15 46 22 46 3 0 -1 -11 -7 -25z m862 -61 c0 -8 -7 -14
-15 -14 -10 0 -15 10 -15 26 0 22 2 25 15 14 8 -7 15 -19 15 -26z m460 9 c0
-20 -3 -24 -11 -16 -7 7 -9 19 -6 27 10 24 17 19 17 -11z m-364 -20 c-7 -7
-26 7 -26 19 0 6 6 6 15 -2 9 -7 13 -15 11 -17z m-500 -88 c-9 -14 -23 -36
-32 -50 -31 -48 -34 -25 -3 25 17 28 35 50 41 50 6 0 3 -11 -6 -25z m288 -17
c-8 -51 -23 -85 -24 -53 0 11 -3 37 -6 58 -6 33 -4 37 15 37 19 0 21 -4 15
-42z m109 10 c-8 -44 -13 -48 -13 -12 l0 29 -20 -33 c-11 -18 -20 -40 -20 -50
0 -18 -18 -42 -32 -42 -4 0 -1 19 7 41 8 23 15 50 15 61 0 10 5 16 10 13 6 -3
10 1 10 9 0 10 9 16 25 16 22 0 24 -3 18 -32z m197 9 c8 -13 26 -40 38 -60 13
-21 28 -37 33 -37 13 0 -14 50 -47 89 l-26 31 52 0 c43 0 59 -5 91 -31 21 -17
39 -38 39 -47 0 -11 -9 -7 -33 16 -46 44 -53 40 -20 -10 16 -24 35 -56 43 -71
8 -16 22 -33 32 -38 10 -5 18 -16 18 -23 0 -18 39 -65 40 -48 0 7 -11 28 -25
46 -14 18 -25 37 -25 41 0 5 -8 17 -17 28 -13 14 -14 21 -6 24 7 2 9 11 6 19
-3 8 0 14 6 14 6 0 2 14 -9 33 -25 40 -25 47 -1 47 11 0 23 -9 26 -20 8 -25
22 -26 29 -2 4 14 5 14 4 -3 0 -29 12 -62 44 -123 15 -30 28 -63 28 -73 0 -11
9 -38 19 -62 11 -23 27 -59 35 -81 14 -35 14 -37 1 -26 -9 7 -28 38 -43 68
-21 43 -28 50 -33 35 -14 -35 -9 -72 14 -100 59 -71 120 -268 89 -287 -5 -3
-8 -27 -6 -53 6 -70 -12 -13 -21 69 -4 35 -13 74 -20 88 -8 14 -25 56 -40 95
-15 38 -35 81 -46 96 -10 15 -19 31 -19 36 0 4 -16 23 -35 42 -19 19 -35 38
-35 44 0 15 -62 103 -81 115 -14 9 -14 6 2 -27 10 -21 24 -43 32 -49 8 -7 20
-34 27 -60 7 -26 18 -52 25 -57 7 -6 16 -26 20 -45 4 -19 14 -44 22 -56 7 -12
16 -30 18 -40 2 -11 14 -47 26 -81 18 -51 19 -65 9 -78 -16 -19 -40 -19 -40 0
0 8 -20 23 -45 34 -25 11 -45 24 -45 30 0 9 -40 8 -130 -4 -19 -3 -62 -7 -95
-11 -32 -3 -67 -9 -76 -14 -9 -5 -19 -7 -21 -4 -3 2 -18 0 -34 -6 -79 -30
-216 -28 -185 3 18 18 13 36 -9 30 -23 -6 -25 0 -8 27 10 16 10 24 0 40 -10
16 -10 20 1 20 25 0 57 44 50 69 -4 16 -3 22 5 17 6 -3 13 4 17 16 10 35 35
88 42 88 3 0 3 -14 -1 -30 -4 -22 -2 -29 6 -24 8 5 9 2 5 -10 -4 -11 -3 -15 4
-10 6 4 15 0 20 -7 6 -9 7 3 3 31 -4 25 -10 50 -15 55 -4 6 -4 17 0 24 10 15
15 8 25 -31 3 -16 11 -28 16 -28 6 0 8 11 4 25 -4 15 -2 25 5 25 6 0 11 -6 12
-12 0 -7 4 -4 9 7 12 27 12 43 0 25 -18 -28 -10 5 8 35 14 22 16 38 11 59 -11
40 -3 46 13 10 7 -16 23 -47 36 -68 19 -31 26 -36 34 -25 7 10 8 8 5 -8 -5
-24 7 -40 18 -23 11 18 22 10 29 -21 5 -25 9 -29 19 -20 16 13 14 96 -3 116
-6 8 -7 16 -2 19 18 11 30 -20 28 -75 -1 -30 -5 -59 -8 -65 -2 -5 1 -27 8 -49
8 -25 13 -32 14 -20 4 45 6 83 8 130 2 46 3 48 17 29 25 -36 63 -166 70 -239
7 -64 8 -67 20 -45 l13 24 5 -24 c3 -14 3 4 1 39 -3 35 -8 71 -13 80 -4 9 -13
37 -20 63 -11 49 -86 204 -102 214 -5 3 -9 10 -9 15 0 6 5 7 10 4 20 -12 9 13
-21 51 -17 22 -35 38 -40 37 -5 -2 -9 2 -9 7 0 20 45 10 60 -13z m300 5 c0
-10 5 -23 12 -30 7 -7 8 -12 3 -12 -6 0 -18 14 -27 30 -14 25 -15 30 -3 30 8
0 15 -8 15 -18z m-1096 -66 c-3 -9 -10 -16 -15 -16 -5 0 -4 9 3 20 14 22 21
20 12 -4z m603 -18 c-3 -8 -6 -5 -6 6 -1 11 2 17 5 13 3 -3 4 -12 1 -19z m156
-5 c2 -10 8 -27 13 -38 7 -17 6 -18 -8 -7 -9 7 -18 24 -21 37 -5 28 8 34 16 8z
m-201 -25 c-7 -7 -12 -8 -12 -2 0 6 3 14 7 17 3 4 9 5 12 2 2 -3 -1 -11 -7
-17z m-52 -58 c11 0 19 -49 9 -56 -5 -3 -12 9 -15 26 -5 20 -11 29 -20 26 -11
-4 -11 -2 -1 15 10 16 13 17 15 4 2 -8 7 -15 12 -15z m-39 -102 c-5 -13 -12
-32 -15 -42 -4 -10 -9 -16 -12 -13 -8 8 16 77 27 77 5 0 5 -9 0 -22z m829
-412 c0 -28 -17 -8 -25 29 -7 29 -7 29 8 10 9 -11 17 -29 17 -39z m51 -40 c0
5 11 -13 24 -41 15 -32 24 -43 25 -30 1 23 52 -66 57 -100 1 -11 8 -39 14 -62
8 -30 9 -127 5 -325 -4 -156 -7 -287 -6 -293 0 -5 3 -40 6 -77 6 -59 4 -68
-10 -68 -22 0 -32 -30 -40 -115 -17 -179 -76 -333 -177 -462 -54 -69 -136
-148 -153 -148 -6 0 -15 -10 -20 -21 -6 -12 -22 -29 -38 -39 -15 -9 -28 -20
-28 -25 0 -5 -24 -33 -54 -62 -49 -49 -79 -98 -59 -98 5 0 14 -19 20 -42 44
-166 77 -269 97 -303 13 -22 27 -50 30 -62 l7 -23 -215 0 -216 0 0 75 c0 63 4
80 25 111 26 38 32 64 16 64 -5 0 -11 -3 -13 -7 -3 -9 -33 -27 -128 -76 -82
-43 -238 -71 -400 -72 -138 0 -175 14 -264 103 -61 61 -97 116 -196 307 -34
66 -69 129 -76 140 -8 11 -14 31 -14 45 0 14 -9 36 -20 50 -11 14 -20 29 -20
34 0 4 -15 41 -34 80 -18 40 -37 83 -41 97 -3 13 -13 38 -21 56 -11 24 -12 38
-3 60 9 24 12 26 22 13 7 -8 31 -32 55 -52 42 -38 93 -51 107 -28 8 14 52 13
61 -1 6 -10 106 -59 121 -59 3 0 3 17 -1 38 -4 26 -1 45 8 58 14 19 15 19 46
1 24 -15 34 -16 45 -7 11 9 21 8 44 -3 24 -12 39 -13 71 -5 36 9 45 8 70 -11
36 -26 50 -26 84 0 l27 21 51 -25 c47 -24 54 -24 79 -11 33 17 61 18 76 3 7
-7 21 -4 47 12 42 25 62 20 77 -18 10 -26 12 -27 23 -10 18 24 26 21 26 -8 0
-15 -9 -31 -25 -41 -74 -49 34 -40 140 10 65 32 129 48 181 47 32 -1 121 98
129 143 5 22 3 41 -4 50 -6 7 -9 15 -6 18 9 8 -17 24 -65 38 -66 20 -152 61
-175 85 -12 11 -47 50 -79 87 -46 54 -143 138 -159 138 -1 0 -3 -12 -2 -27 0
-16 -5 -27 -11 -26 -7 1 -18 -12 -25 -30 -22 -58 -47 -77 -99 -77 -83 0 -204
-48 -262 -104 -29 -28 -39 -32 -83 -30 -27 1 -57 5 -66 8 -10 5 -19 1 -22 -8
-15 -39 138 -104 215 -92 55 9 167 67 205 107 18 19 45 44 61 56 16 12 34 39
41 62 14 49 52 74 91 59 79 -30 190 -130 190 -172 0 -17 14 -32 52 -57 58 -38
86 -86 44 -75 -28 7 -83 -10 -111 -34 -15 -12 -35 -16 -75 -14 -143 8 -211 6
-225 -6 -11 -9 -22 -9 -45 -2 -20 7 -32 7 -36 1 -3 -6 -22 -8 -43 -5 -20 3
-39 5 -43 6 -5 0 -8 6 -8 14 0 7 -14 19 -31 26 -26 11 -39 11 -83 -3 -35 -11
-68 -15 -103 -10 -28 3 -60 2 -70 -2 -17 -7 -17 -8 2 -16 16 -7 12 -8 -15 -6
-19 1 -34 7 -33 13 2 12 -118 27 -232 28 -76 1 -127 25 -140 66 -9 29 55 154
108 211 48 52 67 88 67 125 0 14 5 34 10 45 16 28 2 23 -54 -21 -58 -45 -90
-78 -130 -132 -16 -21 -34 -38 -40 -38 -7 0 -25 -13 -41 -30 -15 -16 -43 -34
-61 -40 -18 -6 -35 -17 -38 -25 -10 -26 -50 -16 -101 26 -28 23 -53 46 -57 53
-4 6 -8 81 -8 167 0 164 9 209 61 313 17 36 30 46 81 66 33 13 62 30 65 37 8
20 25 4 18 -17 -8 -26 52 -55 130 -63 77 -8 263 4 220 14 -27 6 -25 7 15 8 58
1 120 19 144 39 10 10 41 62 68 116 41 85 54 103 84 117 20 9 40 22 44 29 6
10 19 7 55 -14 43 -25 46 -30 39 -54 -15 -49 -7 -119 17 -151 27 -37 37 -39
45 -7 5 23 10 24 77 23 40 0 59 -2 44 -4 -40 -6 -32 -36 13 -45 147 -29 353
-36 398 -12 l27 14 -36 0 c-56 0 -142 19 -151 33 -5 8 -8 7 -8 -5 0 -12 -8
-18 -24 -18 -30 0 -86 20 -86 30 0 15 18 21 24 8 3 -9 11 -6 25 10 11 13 22
18 26 12 10 -17 25 -11 35 13 8 21 9 21 9 -5 1 -15 6 -30 12 -33 11 -7 46 33
41 48 -4 13 35 7 48 -8 7 -8 17 -15 23 -15 5 0 16 -8 23 -17 12 -17 12 -17 11
2 -2 18 3 20 41 17 23 -1 42 1 42 6 0 5 17 7 37 5 20 -1 42 2 49 7 7 6 21 7
35 2 18 -6 36 -2 72 18 33 18 44 29 34 33 -15 6 -12 53 4 63 12 7 11 61 -1 69
-12 7 -13 65 -2 80 14 19 32 15 32 -7 0 -17 3 -19 12 -10 21 21 28 13 28 -29
0 -27 -4 -38 -11 -33 -7 4 -10 1 -7 -7 3 -8 -1 -27 -8 -44 -11 -28 -10 -32 18
-57 34 -30 47 -29 49 5 1 20 2 20 8 -3 7 -22 9 -18 16 25 5 28 9 83 8 123 0
42 4 67 8 60 6 -9 9 -4 9 14 0 15 5 39 10 54 10 26 11 26 30 9 11 -10 20 -14
21 -9z m-581 -45 c-1 -35 -26 -53 -64 -45 -20 3 -39 10 -42 15 -6 11 36 28 52
22 6 -2 14 2 17 10 7 19 37 17 37 -2z m33 -6 c-3 -9 -8 -14 -10 -11 -3 3 -2 9
2 15 9 16 15 13 8 -4z m247 -29 c0 -32 -13 -46 -41 -46 -17 0 -10 59 9 69 27
16 32 13 32 -23z m-140 -6 c8 -5 11 -12 8 -15 -4 -4 -17 0 -30 9 -24 17 -5 23
22 6z m-2025 -61 c-6 -26 -9 -29 -17 -16 -6 11 -5 24 2 38 16 29 23 17 15 -22z
m2085 37 c0 -11 -19 -15 -25 -6 -3 5 1 10 9 10 9 0 16 -2 16 -4z m227 -138
c-3 -8 -6 -5 -6 6 -1 11 2 17 5 13 3 -3 4 -12 1 -19z m373 -557 c0 -5 -7 -14
-15 -21 -16 -14 -18 -10 -9 14 6 17 24 22 24 7z m-23 -133 c-3 -8 -6 -5 -6 6
-1 11 2 17 5 13 3 -3 4 -12 1 -19z m-2422 -108 c10 -11 16 -20 13 -20 -3 0
-13 9 -23 20 -10 11 -16 20 -13 20 3 0 13 -9 23 -20z m-202 -30 c3 -11 1 -23
-4 -26 -5 -3 -9 6 -9 20 0 31 6 34 13 6z m435 -86 c10 -10 -61 5 -71 15 -6 6
6 6 28 1 20 -4 40 -12 43 -16z m-441 -21 c-3 -10 -5 -4 -5 12 0 17 2 24 5 18
2 -7 2 -21 0 -30z m212 -256 c6 -6 11 -18 11 -26 0 -9 -9 -1 -20 17 -11 18
-20 45 -19 60 1 25 2 25 9 -6 4 -19 13 -39 19 -45z m101 -12 c7 -22 24 -54 37
-71 12 -17 23 -34 23 -39 0 -4 10 -16 22 -26 11 -11 16 -19 9 -19 -17 0 -71
51 -65 61 3 5 0 9 -5 9 -16 0 -14 -8 10 -41 11 -16 25 -44 30 -62 5 -18 31
-56 59 -85 27 -30 50 -63 50 -74 0 -12 34 -56 80 -105 45 -47 78 -88 75 -91
-3 -3 -15 4 -28 15 -69 62 -61 30 10 -42 32 -32 58 -65 58 -74 0 -9 5 -15 12
-14 8 2 10 -4 6 -14 -5 -13 -10 -11 -30 13 -14 16 -54 64 -91 107 -37 43 -71
88 -77 100 -14 31 -85 107 -110 117 -19 7 -25 16 -54 80 -6 14 -15 32 -19 40
-28 49 -32 68 -32 167 0 110 7 121 30 48z m220 -212 c0 -8 -38 17 -51 33 -9
11 -2 9 19 -6 17 -13 32 -25 32 -27z m-210 -45 c6 -18 18 -49 25 -68 8 -19 16
-48 20 -64 4 -21 9 -26 14 -17 5 8 11 -10 16 -45 4 -34 14 -68 25 -79 10 -11
20 -33 23 -50 8 -48 38 -148 52 -175 7 -14 20 -41 29 -60 9 -19 27 -55 41 -79
14 -24 25 -46 25 -48 0 -1 -24 -3 -52 -3 -48 0 -55 3 -80 34 -16 19 -28 40
-28 47 0 7 -7 20 -15 29 -9 10 -18 29 -20 42 -3 14 -16 51 -30 82 -14 31 -25
62 -25 69 0 7 -13 26 -30 42 -30 29 -43 58 -15 35 8 -7 15 -10 15 -7 0 2 -7
24 -15 47 -18 50 -20 140 -4 140 12 0 7 108 -6 143 -5 11 -2 17 8 17 8 0 20
-15 27 -32z m2134 -343 c6 -54 -10 -132 -51 -253 -16 -46 -43 -67 -73 -57 -26
8 -25 21 4 87 13 29 34 87 45 128 25 87 51 150 61 150 4 0 10 -25 14 -55z
m-2167 -67 c-3 -8 -6 -5 -6 6 -1 11 2 17 5 13 3 -3 4 -12 1 -19z m38 -89 c0
-62 -11 -71 -32 -28 -19 37 -16 87 5 91 25 6 27 2 27 -63z m515 -69 c3 -4 26
-21 52 -40 27 -18 46 -35 43 -38 -10 -11 -172 124 -211 176 -20 27 -9 19 42
-28 38 -36 71 -67 74 -70z m-451 -14 c8 -9 8 -16 2 -20 -6 -4 -15 3 -21 14
-12 23 2 27 19 6z m290 -217 c28 -29 51 -57 51 -63 0 -16 127 -86 156 -86 15
0 24 -6 24 -15 0 -8 3 -15 8 -15 4 -1 30 -7 57 -15 32 -9 41 -14 25 -14 -39
-1 -220 52 -220 65 0 6 -12 16 -27 23 l-28 11 24 -20 c22 -19 22 -20 3 -20
-11 0 -41 20 -66 45 -26 25 -51 45 -55 45 -10 0 -101 92 -101 102 0 4 22 8 49
8 45 0 52 -4 100 -51z m1461 24 c0 -14 -5 -55 -11 -89 -10 -56 -15 -67 -53
-98 -70 -57 -133 -67 -264 -40 -122 25 -144 51 -86 105 27 25 30 52 9 89 -8
14 -14 33 -15 43 0 16 17 17 210 17 l210 0 0 -27z m-683 -29 c-3 -3 -12 -4
-19 -1 -8 3 -5 6 6 6 11 1 17 -2 13 -5z m-1924 -144 c-3 -11 -7 -20 -9 -20 -2
0 -4 9 -4 20 0 11 4 20 9 20 5 0 7 -9 4 -20z m-43 -2 c0 -7 -3 -24 -7 -36 -8
-31 -22 -9 -15 24 4 25 22 34 22 12z m400 2 c0 -5 -9 -10 -20 -10 -11 0 -20
-7 -20 -15 0 -19 -29 -67 -47 -78 -7 -4 -13 -15 -13 -23 0 -8 -6 -17 -14 -20
-7 -3 -28 -27 -45 -54 -21 -33 -37 -47 -46 -43 -10 3 -15 -1 -15 -15 0 -12 -4
-24 -10 -27 -6 -4 -10 10 -10 33 0 29 7 46 25 63 13 13 25 34 25 47 0 12 5 22
12 22 12 0 23 10 103 89 38 37 75 53 75 31z m-373 -87 c-3 -10 -5 -2 -5 17 0
19 2 27 5 18 2 -10 2 -26 0 -35z m-40 -40 c-3 -10 -5 -4 -5 12 0 17 2 24 5 18
2 -7 2 -21 0 -30z m-158 -39 c-10 -12 -10 -15 2 -12 9 2 15 -7 17 -23 3 -21
-22 -49 -160 -179 -90 -85 -189 -181 -222 -213 -32 -32 -60 -56 -63 -54 -5 6
141 153 266 267 122 112 152 143 146 148 -7 7 -45 -21 -101 -74 -219 -209
-318 -300 -328 -303 -9 -3 72 89 95 109 28 23 186 168 243 223 39 37 74 67 78
67 4 0 8 5 8 10 0 19 -17 10 -55 -27 -21 -21 -51 -47 -67 -59 -38 -28 -208
-184 -291 -266 -38 -38 -70 -68 -73 -68 -6 0 74 96 94 114 8 6 28 25 45 41 18
17 75 69 127 115 52 47 102 93 110 103 26 30 125 105 133 100 4 -3 2 -11 -4
-19z m41 -94 c0 -5 -4 -10 -10 -10 -5 0 -35 -25 -65 -56 -31 -31 -58 -54 -61
-52 -5 6 117 128 129 128 4 0 7 -4 7 -10z m47 -32 c-3 -7 -5 -2 -5 12 0 14 2
19 5 13 2 -7 2 -19 0 -25z m227 17 c3 -8 1 -15 -4 -15 -6 0 -10 7 -10 15 0 8
2 15 4 15 2 0 6 -7 10 -15z m-264 -19 c0 -8 -111 -111 -123 -115 -7 -2 15 24
48 57 52 55 75 72 75 58z m-4 -62 c-11 -7 -22 -11 -25 -8 -3 3 3 12 13 20 11
7 22 11 25 8 3 -3 -3 -12 -13 -20z m211 -21 c-3 -10 -5 -4 -5 12 0 17 2 24 5
18 2 -7 2 -21 0 -30z m-247 -13 c0 -5 -5 -10 -11 -10 -5 0 -7 5 -4 10 3 6 8
10 11 10 2 0 4 -4 4 -10z m-225 -115 c-59 -58 -111 -105 -115 -105 -5 0 -11
-8 -15 -17 -3 -10 -17 -26 -31 -37 l-26 -19 15 24 c24 36 268 272 274 265 3
-3 -42 -53 -102 -111z m254 86 c-35 -29 -45 -26 -13 4 15 14 29 23 32 20 3 -2
-6 -13 -19 -24z m-254 -141 c-133 -133 -164 -162 -134 -122 30 38 254 262 263
262 6 0 -53 -63 -129 -140z m164 113 c-43 -50 -70 -75 -75 -70 -5 4 86 96 95
97 3 0 -6 -12 -20 -27z m-649 -8 c0 -8 -4 -15 -10 -15 -5 0 -10 7 -10 15 0 8
5 15 10 15 6 0 10 -7 10 -15z m50 11 c0 -2 -7 -7 -16 -10 -8 -3 -12 -2 -9 4 6
10 25 14 25 6z m593 -71 c-20 -25 -42 -45 -47 -45 -6 0 10 20 34 45 24 25 46
45 48 45 1 0 -14 -20 -35 -45z m38 -18 c-49 -47 -48 -38 1 17 17 20 34 33 37
31 3 -3 -14 -25 -38 -48z m-641 39 c0 -2 -7 -7 -16 -10 -8 -3 -12 -2 -9 4 6
10 25 14 25 6z m705 -43 c-26 -18 -32 -7 -9 18 12 14 20 17 23 8 2 -7 -4 -18
-14 -26z m-711 -8 c-4 -8 -11 -15 -16 -15 -6 0 -5 6 2 15 7 8 14 15 16 15 2 0
1 -7 -2 -15z m526 7 c0 -12 -81 -92 -94 -92 -5 0 12 23 39 50 52 52 55 55 55
42z m-390 -61 c-43 -50 -59 -64 -43 -37 16 28 76 96 81 92 2 -3 -15 -28 -38
-55z m610 39 c-6 -11 -16 -20 -22 -20 -6 0 -3 9 7 20 10 11 20 20 22 20 2 0
-1 -9 -7 -20z m-80 -25 c-21 -25 -32 -17 -13 9 10 13 20 20 21 15 2 -5 -2 -16
-8 -24z m-120 11 c0 -2 -8 -10 -17 -17 -16 -13 -17 -12 -4 4 13 16 21 21 21
13z m-500 -16 c0 -5 -5 -10 -11 -10 -5 0 -7 5 -4 10 3 6 8 10 11 10 2 0 4 -4
4 -10z m660 -15 c-7 -8 -17 -15 -22 -15 -11 0 14 29 26 30 5 0 3 -7 -4 -15z
m70 11 c0 -3 -4 -8 -10 -11 -5 -3 -10 -1 -10 4 0 6 5 11 10 11 6 0 10 -2 10
-4z m-210 -31 c-7 -9 -15 -13 -18 -10 -3 2 1 11 8 20 7 9 15 13 18 10 3 -2 -1
-11 -8 -20z m-428 -27 c-7 -7 -12 -8 -12 -2 0 14 12 26 19 19 2 -3 -1 -11 -7
-17z m57 3 c-7 -10 -21 -24 -33 -31 l-21 -13 20 24 c19 22 36 38 43 39 1 0 -3
-8 -9 -19z m231 6 c0 -2 -10 -12 -21 -23 -22 -19 -22 -19 -10 4 10 18 31 31
31 19z m60 0 c0 -2 -10 -12 -22 -23 l-23 -19 19 23 c18 21 26 27 26 19z
m-1250 -398 c0 -5 -9 -13 -20 -19 -15 -8 -20 -8 -20 3 0 8 2 16 5 19 8 8 35 5
35 -3z"/>
<path d="M3705 5580 c-3 -5 -1 -10 4 -10 6 0 11 5 11 10 0 6 -2 10 -4 10 -3 0
-8 -4 -11 -10z"/>
<path d="M3435 5513 l-18 -28 27 24 c28 26 31 31 17 31 -5 0 -17 -12 -26 -27z"/>
<path d="M3500 5448 c0 -19 2 -20 10 -8 13 19 13 30 0 30 -5 0 -10 -10 -10
-22z"/>
<path d="M3461 5401 c-7 -5 -11 -15 -9 -22 3 -10 8 -7 17 9 13 24 12 26 -8 13z"/>
<path d="M3702 5245 c-36 -55 -42 -77 -12 -50 11 10 20 23 20 28 0 6 7 18 16
28 9 10 14 23 12 30 -2 7 -18 -10 -36 -36z"/>
<path d="M3915 5140 c4 -6 11 -8 16 -5 14 9 11 15 -7 15 -8 0 -12 -5 -9 -10z"/>
<path d="M4470 4681 c0 -5 5 -13 10 -16 6 -3 10 -2 10 4 0 5 -4 13 -10 16 -5
3 -10 2 -10 -4z"/>
<path d="M4510 4591 c0 -5 5 -13 10 -16 6 -3 10 -2 10 4 0 5 -4 13 -10 16 -5
3 -10 2 -10 -4z"/>
<path d="M3925 4500 c-3 -5 -1 -10 4 -10 6 0 11 5 11 10 0 6 -2 10 -4 10 -3 0
-8 -4 -11 -10z"/>
<path d="M4650 3989 c0 -11 5 -17 10 -14 6 3 10 13 10 21 0 8 -4 14 -10 14 -5
0 -10 -9 -10 -21z"/>
<path d="M3319 3271 c11 -19 41 -41 57 -41 10 0 -28 40 -49 52 -16 8 -17 7 -8
-11z"/>
<path d="M3808 3003 c7 -3 16 -2 19 1 4 3 -2 6 -13 5 -11 0 -14 -3 -6 -6z"/>
<path d="M4186 2171 c-4 -7 -5 -15 -2 -18 9 -9 19 4 14 18 -4 11 -6 11 -12 0z"/>
<path d="M6973 5943 c-28 -19 -29 -43 -4 -74 25 -32 33 -22 29 39 -3 49 -3 49
-25 35z"/>
<path d="M556 5808 c4 -40 10 -77 15 -83 16 -16 102 -34 121 -24 9 5 26 9 37
9 22 0 111 40 111 50 0 10 -69 40 -93 40 -27 0 -47 17 -47 42 0 25 -31 38 -94
38 l-56 0 6 -72z"/>
<path d="M1758 5832 c-50 -28 -62 -52 -27 -52 11 0 54 -20 95 -45 89 -55 114
-57 148 -12 34 45 33 71 -5 97 -24 18 -39 21 -70 16 -28 -5 -46 -2 -62 9 -27
19 -23 20 -79 -13z"/>
<path d="M835 5816 c-19 -15 -18 -15 18 -16 27 0 37 4 35 13 -7 18 -31 20 -53
3z"/>
<path d="M180 5790 c0 -5 5 -10 10 -10 6 0 10 5 10 10 0 6 -4 10 -10 10 -5 0
-10 -4 -10 -10z"/>
<path d="M0 5448 c0 -265 0 -269 20 -258 25 14 48 58 54 106 3 20 10 40 16 44
8 5 6 18 -9 45 -11 21 -18 42 -15 46 3 5 8 28 12 51 6 36 11 42 35 45 61 8 74
19 82 69 6 44 5 49 -27 79 -29 29 -41 33 -100 38 l-68 5 0 -270z"/>
<path d="M6531 5683 c-13 -3 -30 -11 -37 -18 -8 -7 -18 -15 -23 -17 -11 -4
-20 -148 -9 -148 4 0 8 -13 8 -29 0 -62 27 -104 61 -97 72 16 81 21 95 47 8
16 26 32 39 35 14 3 25 12 25 20 0 8 6 14 14 14 24 0 29 33 8 50 -21 18 -44
74 -36 93 5 14 -24 32 -68 41 -14 3 -32 8 -40 10 -7 2 -24 1 -37 -1z"/>
<path d="M525 5653 c-16 -3 -42 -16 -56 -29 -23 -22 -27 -23 -39 -9 -19 22
-63 15 -75 -12 -6 -14 -18 -23 -32 -23 -18 0 -23 -6 -23 -24 0 -27 24 -56 46
-56 8 0 19 11 24 24 13 36 27 40 58 17 16 -11 37 -18 48 -15 14 4 26 -4 42
-25 20 -27 25 -29 42 -19 24 15 26 57 5 98 -14 27 -14 32 1 55 18 27 19 26
-41 18z m25 -98 c0 -8 -6 -15 -14 -15 -17 0 -28 14 -19 24 12 12 33 6 33 -9z"/>
<path d="M733 5543 c-18 -7 -16 -30 2 -37 11 -4 15 1 15 19 0 14 -1 25 -2 24
-2 0 -9 -3 -15 -6z"/>
<path d="M1532 5534 c-24 -16 -31 -63 -9 -65 52 -5 95 -3 110 4 41 19 2 77
-53 77 -14 0 -36 -7 -48 -16z"/>
<path d="M622 5508 c-7 -7 -12 -25 -12 -40 0 -21 6 -29 26 -34 14 -4 30 -2 36
4 8 8 15 8 24 1 17 -14 54 -2 54 17 0 9 -11 14 -31 14 -25 0 -30 3 -25 17 12
29 -47 46 -72 21z"/>
<path d="M1321 5401 c-14 -4 -26 -12 -28 -18 -5 -13 55 -48 65 -39 3 3 2 6 -3
6 -4 0 0 9 9 19 30 33 10 47 -43 32z"/>
<path d="M305 5380 c-3 -5 0 -19 7 -31 10 -17 10 -23 1 -26 -7 -3 -13 -16 -13
-29 0 -13 -6 -33 -12 -44 -11 -17 -10 -22 2 -30 23 -15 60 -12 60 5 0 8 18 26
40 40 23 14 40 33 40 44 0 23 -31 51 -57 51 -12 0 -23 7 -27 15 -6 17 -32 20
-41 5z"/>
<path d="M1040 5382 c0 -4 5 -13 12 -20 13 -13 52 3 43 19 -7 11 -55 12 -55 1z"/>
<path d="M794 5329 c3 -17 6 -45 6 -61 0 -23 15 -43 72 -98 40 -39 78 -70 85
-70 6 0 21 14 33 30 12 17 28 30 36 30 17 0 17 5 2 29 -9 15 -8 24 5 45 13 19
14 26 5 26 -19 0 -136 57 -165 80 -14 11 -39 20 -56 20 -28 0 -29 -2 -23 -31z"/>
<path d="M6940 5230 c-15 -28 -4 -43 21 -30 22 12 26 50 4 50 -8 0 -19 -9 -25
-20z"/>
<path d="M238 5170 c-25 -50 -43 -70 -61 -70 -12 0 -17 -12 -19 -47 -3 -53 14
-76 65 -85 30 -6 47 13 47 51 0 11 9 22 19 26 35 11 36 44 2 73 -19 17 -31 38
-33 57 l-3 30 -17 -35z"/>
<path d="M1185 5160 c-3 -5 3 -10 15 -10 12 0 18 5 15 10 -3 6 -10 10 -15 10
-5 0 -12 -4 -15 -10z"/>
<path d="M5380 5016 c0 -49 9 -61 40 -51 15 5 20 15 20 39 0 36 -15 56 -42 56
-15 0 -18 -8 -18 -44z"/>
<path d="M23 4992 c-22 -3 -23 -7 -23 -104 0 -76 3 -98 12 -94 7 2 30 10 51
17 20 7 37 15 37 19 0 4 11 24 25 44 21 31 23 40 12 56 -6 11 -19 20 -28 20
-9 0 -19 6 -22 14 -8 20 -37 33 -64 28z"/>
<path d="M1708 4943 c7 -3 16 -2 19 1 4 3 -2 6 -13 5 -11 0 -14 -3 -6 -6z"/>
<path d="M0 4458 c1 -93 2 -100 14 -78 8 14 16 59 18 100 3 64 1 75 -14 78
-16 3 -18 -7 -18 -100z"/>
<path d="M713 4443 c-22 -8 -15 -50 11 -66 21 -14 26 -14 45 -1 27 19 27 39
-1 58 -23 16 -34 18 -55 9z"/>
<path d="M1593 4338 c-17 -22 -23 -47 -12 -54 15 -9 39 16 39 42 0 26 -12 31
-27 12z"/>
<path d="M326 4305 c-23 -34 -21 -101 3 -114 14 -8 24 -4 46 18 29 31 28 51
-3 99 -18 28 -26 28 -46 -3z"/>
<path d="M16 4278 c-24 -34 -23 -183 1 -192 11 -5 23 0 33 12 8 11 36 27 63
37 40 15 47 22 47 45 0 30 -30 70 -52 70 -8 0 -25 11 -38 25 -29 31 -35 31
-54 3z"/>
<path d="M1296 4045 c-9 -9 -23 -33 -33 -53 -9 -20 -20 -39 -23 -42 -4 -3 -1
-18 5 -34 l12 -29 13 22 c9 18 17 22 38 16 40 -9 62 -8 78 6 13 11 13 14 0 21
-9 5 -16 20 -16 33 0 62 -40 94 -74 60z"/>
<path d="M2352 4020 c0 -14 2 -19 5 -12 2 6 2 18 0 25 -3 6 -5 1 -5 -13z"/>
<path d="M73 3999 c-52 -19 -6 -123 50 -112 30 6 35 24 12 43 -11 9 -12 16 -4
26 21 26 -21 57 -58 43z"/>
<path d="M231 3956 c-43 -46 -1 -144 52 -123 9 3 13 14 10 30 -3 13 2 38 11
54 15 30 15 30 -18 46 -32 15 -35 15 -55 -7z"/>
<path d="M6901 3884 c-6 -22 -20 -49 -31 -59 -27 -24 -25 -31 8 -38 17 -4 33
-16 40 -32 10 -21 16 -24 39 -19 35 9 43 20 43 61 0 25 -7 38 -31 55 -17 13
-37 34 -44 48 l-13 25 -11 -41z"/>
<path d="M484 3884 c-15 -22 -15 -27 -3 -35 8 -5 20 -7 27 -4 8 3 17 5 22 5
14 0 20 44 7 52 -21 14 -36 9 -53 -18z"/>
<path d="M2361 3870 c0 -25 6 -63 14 -85 8 -22 15 -51 15 -65 1 -25 1 -25 10
-3 6 15 4 36 -5 64 -8 23 -15 53 -16 68 0 14 -4 35 -9 46 -7 15 -9 9 -9 -25z"/>
<path d="M0 3755 c0 -60 2 -65 18 -56 12 6 18 22 19 48 1 22 3 46 5 53 2 9 -6
16 -19 18 -22 3 -23 0 -23 -63z"/>
<path d="M626 3674 c-16 -23 -23 -51 -25 -105 -1 -12 -8 -15 -25 -12 -70 14
-90 -113 -24 -148 27 -14 167 -19 175 -6 3 5 -4 19 -16 31 -21 23 -28 60 -12
70 5 3 21 31 36 61 25 53 26 57 11 80 -14 21 -74 56 -95 55 -3 0 -14 -12 -25
-26z"/>
<path d="M2360 3587 c0 -30 22 -107 31 -107 16 0 9 54 -11 90 -13 23 -19 29
-20 17z"/>
<path d="M2407 3585 c-4 -8 -2 -17 3 -20 6 -4 10 3 10 14 0 25 -6 27 -13 6z"/>
<path d="M2410 3523 c0 -17 5 -35 10 -38 13 -8 13 35 0 55 -7 11 -10 7 -10
-17z"/>
<path d="M2455 3390 c3 -5 8 -10 11 -10 2 0 4 5 4 10 0 6 -5 10 -11 10 -5 0
-7 -4 -4 -10z"/>
<path d="M2320 3374 c0 -8 5 -12 10 -9 6 4 8 11 5 16 -9 14 -15 11 -15 -7z"/>
<path d="M2370 3341 c0 -11 4 -23 10 -26 6 -4 9 5 8 19 -3 30 -18 35 -18 7z"/>
<path d="M6062 3337 c-13 -14 -18 -27 -13 -36 12 -20 47 2 53 34 6 32 -11 33
-40 2z"/>
<path d="M1776 3330 c-66 -12 -81 -113 -25 -167 16 -15 29 -35 29 -44 0 -9 7
-19 15 -23 18 -6 20 16 4 45 -8 16 -5 26 20 55 58 65 31 148 -43 134z"/>
<path d="M2311 3294 c0 -11 3 -14 6 -6 3 7 2 16 -1 19 -3 4 -6 -2 -5 -13z"/>
<path d="M17 3262 c-21 -23 -25 -167 -4 -175 9 -4 9 -6 0 -6 -7 -1 -13 -11
-13 -22 0 -18 4 -20 23 -14 12 4 34 9 49 12 15 3 34 13 44 24 15 17 15 20 -5
45 l-22 27 26 27 c14 14 25 36 25 47 0 47 -90 72 -123 35z"/>
<path d="M503 3233 c-15 -10 -23 -26 -23 -43 0 -15 -7 -44 -15 -63 -21 -51
-19 -93 6 -118 l21 -21 28 61 c20 43 40 67 69 87 48 31 51 53 16 89 -29 29
-69 32 -102 8z"/>
<path d="M783 3113 c-18 -6 -16 -28 3 -47 23 -24 34 -19 34 13 0 29 -14 42
-37 34z"/>
<path d="M5924 3075 c-17 -42 -18 -75 -2 -110 11 -26 14 -26 72 -20 34 4 65
11 70 15 4 5 5 32 1 60 -6 46 -11 54 -36 63 -16 6 -29 15 -29 19 0 4 -14 8
-31 8 -25 0 -32 -6 -45 -35z"/>
<path d="M6793 3053 c-14 -5 -18 -35 -6 -46 10 -11 33 13 33 34 0 19 -5 21
-27 12z"/>
<path d="M2402 3025 c0 -16 2 -22 5 -12 2 9 2 23 0 30 -3 6 -5 -1 -5 -18z"/>
<path d="M4 2993 c4 -21 7 -54 8 -74 1 -33 6 -39 45 -57 25 -11 46 -16 49 -10
11 17 -6 57 -36 88 -20 20 -30 41 -30 60 0 24 -4 30 -21 30 -19 0 -21 -4 -15
-37z"/>
<path d="M238 2963 c-8 -10 -20 -37 -27 -60 -10 -36 -9 -50 8 -100 11 -32 21
-69 23 -83 2 -20 9 -25 31 -25 15 -1 40 4 56 11 27 11 27 13 27 96 -1 76 -4
87 -28 116 -14 17 -28 35 -30 40 -7 20 -45 22 -60 5z"/>
<path d="M6077 2878 c-2 -7 0 -21 5 -31 8 -16 11 -16 39 5 26 20 28 23 12 30
-28 11 -51 9 -56 -4z"/>
<path d="M6304 2866 c-27 -12 -32 -20 -36 -58 -7 -58 23 -131 49 -121 28 10
60 42 73 74 10 23 9 38 -1 74 -15 50 -29 55 -85 31z"/>
<path d="M6619 2802 c-10 -7 -19 -10 -19 -6 0 4 -11 -3 -25 -16 l-25 -24 27
-28 c15 -15 35 -28 46 -28 10 0 32 -9 47 -20 l28 -20 21 26 c25 31 27 71 6
101 -18 26 -78 35 -106 15z"/>
<path d="M495 2700 c-16 -17 -17 -25 -7 -59 7 -21 12 -50 12 -65 0 -24 3 -26
48 -26 27 0 52 -3 56 -7 4 -5 29 -8 54 -9 43 -1 115 -13 185 -30 33 -8 37 12
7 46 -19 22 -24 35 -21 52 1 9 -36 18 -64 17 -11 -1 -51 4 -89 9 -61 10 -74
16 -110 51 -23 23 -44 41 -47 41 -3 0 -14 -9 -24 -20z"/>
<path d="M2501 2704 c0 -11 3 -14 6 -6 3 7 2 16 -1 19 -3 4 -6 -2 -5 -13z"/>
<path d="M934 2478 c-4 -13 -10 -25 -13 -28 -4 -3 -14 -17 -24 -33 -16 -24
-22 -27 -58 -21 l-40 7 11 -29 c6 -15 20 -34 30 -41 11 -8 20 -21 20 -29 0 -8
11 -37 25 -64 14 -27 25 -57 25 -66 0 -9 9 -18 20 -21 20 -5 36 -36 26 -51 -3
-5 6 -20 20 -33 l26 -24 19 24 c10 13 19 34 19 47 0 13 5 24 12 24 9 0 9 3 0
12 -7 7 -12 19 -12 27 0 8 -14 29 -30 46 -37 38 -48 91 -30 144 11 33 10 43
-9 84 -12 26 -23 47 -26 47 -2 0 -7 -10 -11 -22z"/>
<path d="M6193 2464 c-39 -14 -64 -46 -49 -62 4 -3 39 -6 78 -6 60 -1 72 2 76
16 2 11 14 18 28 18 19 0 24 5 24 25 0 24 -3 25 -57 24 -32 0 -77 -7 -100 -15z"/>
<path d="M200 2442 c0 -5 -12 -14 -27 -21 l-28 -13 38 -33 c21 -18 37 -41 37
-54 0 -12 6 -21 15 -21 17 0 22 65 5 75 -5 3 -10 17 -10 31 0 13 5 24 10 24 6
0 10 5 10 10 0 6 -11 10 -25 10 -14 0 -25 -4 -25 -8z"/>
<path d="M20 2278 c-25 -42 -25 -54 3 -95 26 -39 56 -43 92 -11 21 18 25 30
25 78 l0 56 -50 3 c-47 2 -51 0 -70 -31z"/>
<path d="M6878 2248 c-23 -8 -28 -16 -28 -43 0 -18 -7 -38 -15 -45 -18 -15
-20 -51 -3 -68 7 -7 39 -12 75 -12 71 0 80 9 77 73 -1 28 -10 47 -35 73 -18
18 -35 34 -38 33 -4 0 -18 -5 -33 -11z"/>
<path d="M301 2162 c14 -64 49 -69 49 -8 0 29 -4 34 -29 38 -27 4 -28 3 -20
-30z"/>
<path d="M1741 2164 c0 -11 3 -14 6 -6 3 7 2 16 -1 19 -3 4 -6 -2 -5 -13z"/>
<path d="M5410 2102 c0 -21 45 -99 71 -123 l29 -27 16 30 c18 34 6 78 -20 78
-8 0 -23 11 -34 25 -19 23 -62 35 -62 17z"/>
<path d="M0 1990 l0 -70 24 11 c13 6 23 18 21 28 -1 9 0 10 2 4 3 -7 15 -13
28 -13 13 0 27 -4 30 -10 3 -5 15 -10 26 -10 10 0 19 -7 19 -15 0 -8 16 -33
36 -55 38 -42 39 -63 4 -95 -26 -23 -99 -23 -134 1 -15 9 -33 29 -41 43 -13
23 -14 2 -15 -191 l0 -217 23 8 c12 5 22 17 22 27 0 11 13 26 32 36 21 12 34
28 38 48 4 17 13 34 21 37 8 3 14 13 14 22 0 21 39 46 66 42 12 -1 36 10 53
25 20 16 48 28 74 31 60 7 82 25 67 54 -7 13 -10 38 -6 60 l6 39 -50 0 c-52 0
-85 19 -85 50 -1 22 -30 72 -54 94 -14 13 -29 17 -48 13 -41 -8 -105 14 -131
45 -13 16 -28 28 -33 28 -5 0 -9 -31 -9 -70z"/>
<path d="M546 2003 c-3 -3 1 -18 9 -33 13 -25 11 -70 -4 -70 -13 0 -10 -45 5
-68 9 -13 13 -26 10 -29 -3 -3 3 -22 13 -42 10 -20 27 -58 36 -84 16 -45 16
-52 1 -100 -9 -29 -15 -61 -15 -72 1 -43 -9 -95 -20 -109 -10 -12 -10 -23 -2
-49 14 -42 33 -59 96 -92 54 -27 65 -24 90 25 17 34 1 72 -34 80 -34 8 -39 30
-7 30 16 0 26 6 26 15 0 8 -4 15 -10 15 -25 0 -6 27 30 43 36 17 39 22 33 45
-3 15 -10 29 -15 30 -20 8 -38 65 -38 119 0 88 -51 157 -145 197 -5 3 2 16 17
29 l26 24 -29 44 c-27 41 -60 65 -73 52z"/>
<path d="M5543 1948 c-28 -14 -36 -34 -22 -61 7 -12 13 -23 14 -25 1 -1 14 3
28 9 21 9 30 9 42 -1 14 -12 18 -11 26 1 13 21 11 34 -8 57 -23 26 -52 33 -80
20z"/>
<path d="M6966 1743 c-35 -68 -62 -102 -94 -114 -32 -12 -39 -39 -16 -58 11
-9 23 -24 27 -34 5 -13 13 -16 31 -11 21 5 25 1 36 -33 13 -39 28 -55 42 -47
4 3 8 34 8 70 0 57 -2 64 -20 64 -25 0 -25 14 0 49 17 23 20 39 18 99 l-3 72
-29 -57z"/>
<path d="M1627 1733 c-10 -10 -8 -51 3 -58 13 -8 90 13 90 25 0 5 -16 17 -36
25 -41 17 -48 18 -57 8z"/>
<path d="M6619 1651 c-13 -10 -28 -34 -34 -52 -11 -33 -14 -34 -83 -43 -107
-14 -93 -43 52 -115 l39 -19 27 28 c15 15 42 31 59 35 28 6 32 10 25 28 -4 12
-8 47 -8 77 -1 76 -30 99 -77 61z"/>
<path d="M402 1518 c-5 -7 -16 -33 -23 -57 -12 -41 -12 -45 10 -62 14 -11 39
-19 62 -19 l39 0 0 50 c0 41 -5 56 -25 75 -27 28 -47 32 -63 13z"/>
<path d="M1654 1496 c-10 -8 -17 -17 -14 -19 3 -3 16 3 29 14 27 22 15 26 -15
5z"/>
<path d="M1136 1469 c-20 -34 -17 -44 13 -34 15 4 21 15 21 36 0 37 -11 37
-34 -2z"/>
<path d="M1615 1460 c-3 -5 -1 -10 4 -10 6 0 11 5 11 10 0 6 -2 10 -4 10 -3 0
-8 -4 -11 -10z"/>
<path d="M1479 1423 c-13 -17 -13 -17 6 -3 11 8 22 16 24 17 2 2 0 3 -6 3 -6
0 -17 -8 -24 -17z"/>
<path d="M1530 1430 c0 -5 7 -7 15 -4 8 4 15 8 15 10 0 2 -7 4 -15 4 -8 0 -15
-4 -15 -10z"/>
<path d="M5379 1413 c-23 -62 0 -169 41 -190 37 -18 50 2 54 80 4 77 -16 121
-59 129 -21 5 -28 1 -36 -19z"/>
<path d="M1442 1358 c-23 -18 -41 -39 -41 -47 -1 -13 67 40 82 66 12 20 3 16
-41 -19z"/>
<path d="M1399 1358 c-12 -23 -12 -23 10 -4 23 21 26 26 11 26 -5 0 -15 -10
-21 -22z"/>
<path d="M1325 1330 c-3 -6 1 -7 9 -4 18 7 21 14 7 14 -6 0 -13 -4 -16 -10z"/>
<path d="M6926 1319 c-17 -10 -33 -24 -78 -66 -30 -28 -21 -57 32 -107 61 -57
85 -61 77 -11 -5 32 -4 35 19 35 22 0 24 4 24 42 0 45 -28 118 -44 118 -6 0
-19 -5 -30 -11z"/>
<path d="M1296 1303 c-6 -14 -5 -15 5 -6 7 7 10 15 7 18 -3 3 -9 -2 -12 -12z"/>
<path d="M1267 1283 c-4 -3 -7 -11 -7 -17 0 -6 5 -5 12 2 6 6 9 14 7 17 -3 3
-9 2 -12 -2z"/>
<path d="M1170 1229 c0 -5 5 -7 10 -4 6 3 10 8 10 11 0 2 -4 4 -10 4 -5 0 -10
-5 -10 -11z"/>
<path d="M658 1108 c-2 -7 -2 -26 1 -43 7 -35 35 -43 66 -20 19 15 19 16 -12
45 -35 33 -49 37 -55 18z"/>
</g>
</svg>
